<?xml version="1.0" encoding="utf-8"?>
<!-- Generator: Adobe Illustrator 22.0.0, SVG Export Plug-In . SVG Version: 6.00 Build 0)  -->
<!DOCTYPE svg PUBLIC "-//W3C//DTD SVG 1.1//EN" "http://www.w3.org/Graphics/SVG/1.1/DTD/svg11.dtd">
<svg version="1.1" id="Layer_1" xmlns="http://www.w3.org/2000/svg" xmlns:xlink="http://www.w3.org/1999/xlink" x="0px" y="0px"
	 viewBox="0 0 1040 252" style="enable-background:new 0 0 1040 252;" xml:space="preserve">
<style type="text/css">
	.st0{fill:#304C41;}
	.st1{fill:#A65071;}
	.st2{fill:#8BA44E;}
	.st3{fill:#868B7C;}
	.st4{fill:#7F2B4A;}
	.st5{fill:#586636;}
</style>
<g>
	<g>
		<g>
			<path className="st0" d="M283.9,202.1v-18h16.2c2.9,0,8.5-1.8,8.5-11.2V75.2c0-6.2-4.1-7.7-7.1-7.7h-19.4V50.8l58.3-5v17.7l-3.2,15.3
				c12.1-22.1,30-33.9,53.9-33.9c23.6,0,48.6,14.1,48.6,40v90.7c0,3.8,3.5,8.5,7.9,8.5h17.1v18h-78.6v-18h14.1
				c4.4,0,8.2-3.5,8.2-7.7V92c0-15.9-13.5-23.6-27.7-23.6c-19.7,0-40.3,17.1-40.3,38V173c0,8.2,3.2,11.2,8.8,11.2h16.2v18H283.9z"/>
			<path className="st0" d="M516.6,44.9c50.9,0,71.8,36.5,71.8,84.5H475.4c0,42.7,21.2,55.6,46.2,55.6c37.7,0,45.3-33.9,45.3-33.9h19.7
				c0,21.5-25,55.4-69.2,55.4c-51.2,0-77.7-34.2-77.7-80.4C439.8,80.2,468.9,44.9,516.6,44.9z M476.3,109.7h74.8
				c0-23.3-8.5-45-35.6-45C490.1,64.6,476.3,85.5,476.3,109.7z"/>
			<path className="st0" d="M562.1,184.2c18.5,0,19.1-0.6,25.3-7.1l43-51.5l-41.2-51.2c-5-6.5-14.1-7.4-24.7-7.4V50.5h78.6V67h-12.7
				c-2.9,0-5,1.5-5,4.1c0,3.2,0.6,3.5,26.5,35.6c26.5-32.7,27.1-33,27.1-35.9c0-2.4-1.5-3.8-3.8-3.8H661V50.5h68.6V67h-14.4
				c-4.4,0-7.7,2.9-11.2,7.4l-38.9,48.3l43,52.1c6.2,7.7,8.2,9.4,27.1,9.4v18h-83.9v-18h15.9c3.5,0,5.9-2.1,5.9-5
				c0-3.5-8.8-13-30-39.2c-25.3,30.9-30.6,36.8-30.6,40c0,2.4,2.1,4.1,5.3,4.1h15v18h-70.7V184.2z"/>
			<path className="st0" d="M711.3,49.9l56.2-5V160c0,16.2,13.5,23.8,27.7,23.8c19.7,0,40.3-17.4,40.3-38.3v-71c0-6.2-4.1-7.7-7.1-7.7
				h-18V50.2l56.8-5v131.9c0,6.2,3.8,7.7,7.1,7.7h20.3v17.4H837v-13.2l1.8-15.6c-12.1,22.4-30,33.9-53.9,33.9
				c-23.6,0-47.4-13.8-48.9-39.7v-93c0-5.9-3.8-7.7-7.1-7.7h-17.7V49.9z"/>
			<path className="st0" d="M895.3,202.1h-15.9v-57.7h16.5c3.5,25.3,22.7,41.8,51.2,41.8c14.4,0,33.9-5.6,33.9-23.8
				c0-11.2-9.4-16.2-19.4-18.5l-45.9-11.5c-21.8-5.6-37.4-18-37.4-41.2c0-32.7,30-46.2,58.3-46.2c16.8,0,31.2,3.8,44.5,14.1
				l5.9-14.1h14.7v54.8h-16.5c-5.6-25-22.1-34.7-47.4-34.7c-13,0-29.4,4.7-29.4,20.6c0,10,7.4,15.9,16.5,18l52.4,12.7
				c20.6,5,33.9,19.7,33.9,40.3c0,33.9-30,50.1-60.4,50.1c-20.3,0-35.6-5.3-51.5-17.4L895.3,202.1z"/>
		</g>
	</g>
	<g>
		<path className="st1" d="M242.7,96.3c0-35.4-28.7-64-64-64c-28.6,0-52.9,18.8-61.1,44.7c14.6,10,24.1,26.7,24.1,45.7
			c0,1.9-0.1,3.7-0.3,5.5c5.7-2.5,11.9-4,18.6-4c20.1,0,37.2,13.1,43.1,31.2C226.4,145.9,242.7,123,242.7,96.3z"/>
		<path className="st2" d="M129,136.6c-8.9-11-14.3-25-14.3-40.3c0-6.7,1-13.2,3-19.3c-8.9-6.1-19.7-9.7-31.3-9.7
			C55.8,67.4,31,92.1,31,122.7s24.8,55.4,55.4,55.4c10.4,0,20-2.8,28.3-7.8c0-0.2,0-0.5,0-0.7C114.7,156.6,120.2,144.9,129,136.6z"
			/>
		<path className="st0" d="M129,136.6c3.7-3.4,7.9-6.3,12.5-8.4c0.2-1.8,0.3-3.7,0.3-5.5c0-19-9.6-35.7-24.1-45.7
			c-1.9,6.1-3,12.6-3,19.3C114.7,111.6,120,125.6,129,136.6z"/>
		<path className="st3" d="M137.1,144.9c-4.7,10.6-12.5,19.5-22.4,25.4C115.1,195,135.2,215,160,215c25,0,45.3-20.3,45.3-45.3
			c0-4.9-0.8-9.7-2.3-14.1c-7.5,3.1-15.8,4.8-24.4,4.8C162.8,160.3,148.3,154.5,137.1,144.9z"/>
		<path className="st4" d="M160,124.3c-6.6,0-12.9,1.4-18.6,4c-0.6,5.9-2.1,11.5-4.4,16.7c11.2,9.6,25.7,15.4,41.6,15.4
			c8.6,0,16.9-1.7,24.4-4.8C197.2,137.4,180.1,124.3,160,124.3z"/>
		<path className="st5" d="M137.1,144.9c-3-2.5-5.7-5.3-8.1-8.3c-8.8,8.3-14.3,20-14.3,33c0,0.2,0,0.5,0,0.7
			C124.6,164.4,132.4,155.5,137.1,144.9z"/>
		<path className="st0" d="M137.1,144.9c2.3-5.2,3.8-10.8,4.4-16.7c-4.6,2.1-8.9,4.9-12.5,8.4C131.4,139.6,134.1,142.4,137.1,144.9z"/>
	</g>
</g>
</svg>
